<svg xmlns="http://www.w3.org/2000/svg" xmlns:xlink="http://www.w3.org/1999/xlink" viewBox="0 0 474.83 530.13"><defs><clipPath id="clip-path"><path d="M247.65,71.4A18.2,18.2,0,0,0,254.46,74a30.12,30.12,0,0,1-6.84,5.79h.2a32.16,32.16,0,0,0,17.59-4.88l-.06-.23a.46.46,0,0,0-.38-.35L262.3,74a.43.43,0,0,1-.24-.76l2-1.79a.3.3,0,0,0,.12-.21,69.1,69.1,0,0,1-16.56.15" fill="none"/></clipPath><clipPath id="clip-path-2"><path d="M234,228.26l17.33,12.54c0-.23,0-.47,0-.7a61.53,61.53,0,0,0-1.12-12.42,7.17,7.17,0,0,1,1.76-7.49c.47-.65.94-1.32,1.38-2a145.51,145.51,0,0,1-.47-15.47,73.51,73.51,0,0,1-7.16-2.11,10.49,10.49,0,0,1-3-1.44c-6.69,8-9.48,18.73-8.78,29.12" fill="none"/></clipPath><clipPath id="clip-path-3"><path d="M204.58,194.85a22.87,22.87,0,0,1-3.47,1.24c-.7,11.86-1.52,24-3.93,35.52.21.88.41,1.73.65,2.61a14.77,14.77,0,0,0,2.17,5.2,5.7,5.7,0,0,0,4.81,2.53,5.91,5.91,0,0,0,4.38-3.06,16.05,16.05,0,0,0,1.67-5.25c2.79-14,4.85-28.72,1.76-42.63-2,2.05-4.81,2.35-8,3.84" fill="none"/></clipPath><clipPath id="clip-path-4"><path d="M221.4,140.48c-7.54,4.35-15,9-23.69,9.81a2.26,2.26,0,0,1,.35.67c4.87,4.49,9.51,8.87,12.42,14.86.12.23.23.5.35.76,4.38-2.41,8.72-5,12.1-8.66s5.58-8.4,5.28-13.18a2.94,2.94,0,0,1-.41-2.41s0-.06,0-.09a3.94,3.94,0,0,0-1.94-2.64,2.59,2.59,0,0,0-1.14-.23,6.56,6.56,0,0,0-3.35,1.11" fill="none"/></clipPath></defs><title>Asset 19</title><g id="Layer_2" data-name="Layer 2"><g id="Layer_1-2" data-name="Layer 1"><circle cx="223.63" cy="181.41" r="165.79" fill="#fbfafc"/><path d="M222.72,0A182.44,182.44,0,0,1,405.16,182.44c0,100.75-81.68,182.43-182.44,182.43A182.43,182.43,0,0,1,40.29,182.44C40.29,81.71,122,0,222.72,0M344.15,182.44A121.46,121.46,0,1,0,222.69,303.89,121.44,121.44,0,0,0,344.15,182.44" fill="#fbe3e9"/><path d="M222.72,61A121.44,121.44,0,1,1,101.26,182.44,121.46,121.46,0,0,1,222.72,61m69,121.43a69,69,0,1,0-69,69,69,69,0,0,0,69-69" fill="#bdd2ed"/><path d="M222.72,113.5a69,69,0,1,1-69,69,69,69,0,0,1,69-69" fill="#fff"/><path d="M127.69,393.79h-19a18.42,18.42,0,0,0-17.38-12.54H40.64a18.31,18.31,0,0,0-13.8,30.36H19A14.16,14.16,0,0,0,4.88,425.73v.91A14.16,14.16,0,0,0,19,440.76H78.07a14.21,14.21,0,0,0,13.1-8.86h36.49a16.21,16.21,0,0,0,16.15-16.15v-5.81a16.16,16.16,0,0,0-16.12-16.15" fill="#ececeb"/><path d="M229.74,209.91v26a1.49,1.49,0,0,1-1.06,1.44,1.4,1.4,0,0,1-1.76-1.35V209.89h0a13.26,13.26,0,0,1,2.82,0h0" fill="#fff"/><path d="M227,206.69v29.18a1.49,1.49,0,0,0,1.06,1.44,1.4,1.4,0,0,0,1.76-1.35V207.1Z" fill="#fff"/><path d="M251.2,264.85h9.22a5.49,5.49,0,0,1-.35-2A5.91,5.91,0,0,1,266,257h33a5.9,5.9,0,0,1,5.93,5.84,5.47,5.47,0,0,1-.44,2.17h17.14a5.92,5.92,0,0,1,5.67,4.11h21.49a3.88,3.88,0,1,1,0,7.75H307.6a4.48,4.48,0,0,1-1.21-.17H288.66a6.19,6.19,0,0,1-2.46-.53,6.56,6.56,0,0,1-2,.35h-33a5.86,5.86,0,1,1,0-11.71" fill="#fff"/><path d="M453,417.83H427.29c-3.28-7.25-12.59-12.53-23.48-12.53H335.37c-13.62,0-24.75,8.25-24.75,18.32,0,4.61,2.32,8.8,6.14,12H306.19c-10.48,0-19.06,6.35-19.06,14.13v.91c0,7.75,8.58,14.12,19.06,14.12H386c8,0,14.85-3.7,17.7-8.87H453c12,0,21.82-7.25,21.82-16.15V434c-.09-8.89-9.9-16.15-21.88-16.15" fill="#ececeb"/><path d="M201.17,195.85a.13.13,0,0,1-.14-.14v0a.13.13,0,0,1,.14-.15.14.14,0,0,1,.15.15A.19.19,0,0,1,201.17,195.85Z" fill="#010101"/><path d="M259.27,155h0a.15.15,0,0,1,0-.3.15.15,0,1,1,0,.3Z" fill="#010101"/><path d="M228,185.28a6.69,6.69,0,0,1-1.12-.09.12.12,0,0,1-.12-.17.13.13,0,0,1,.18-.12,8.28,8.28,0,0,0,2.11,0,4.17,4.17,0,0,0,.65-.12c.09,0,.15,0,.17.12s0,.15-.11.18-.41.09-.65.11A7.21,7.21,0,0,1,228,185.28Z" fill="#010101"/><path d="M263.59,157.51v.12a1.67,1.67,0,0,1-.59,1,1.15,1.15,0,0,0-.17.14l-.39-.26a9.61,9.61,0,0,1-2.34-2,3.78,3.78,0,0,1-.74-1.35,1.67,1.67,0,0,1-.06-.38,10.27,10.27,0,0,1,3.35,1.26,2.19,2.19,0,0,1,.91,1.06v0a1.63,1.63,0,0,1,0,.38" fill="#fff"/><path d="M262.8,159l-.56-.38a9.91,9.91,0,0,1-2.29-1.94,3.85,3.85,0,0,1-.76-1.41,1.76,1.76,0,0,1-.06-.41l0-.21.2.06.62.18a8.43,8.43,0,0,1,2.76,1.11,2.43,2.43,0,0,1,1,1.12v0a.94.94,0,0,1,0,.41v.18a2,2,0,0,1-.62,1.08.59.59,0,0,1-.2.15Zm-3.35-4c0,.06,0,.09,0,.15a3.84,3.84,0,0,0,.7,1.29,9.53,9.53,0,0,0,2.21,1.88l.41.27.08-.09a1.54,1.54,0,0,0,.53-.91v-.12a1.23,1.23,0,0,0,0-.32v0a1.89,1.89,0,0,0-.85-1,7.86,7.86,0,0,0-2.67-1.06Z" fill="#010101"/><path d="M243.36,175.3h0a.16.16,0,0,1-.12-.18c.39-1.52.77-2.9,1.18-4.19a.14.14,0,1,1,.26.08c-.41,1.3-.79,2.68-1.17,4.2A.13.13,0,0,1,243.36,175.3Z" fill="#010101"/><path d="M290.8,139.13h-.05a7.41,7.41,0,0,0-4-.56h-.06a.1.1,0,0,0-.08,0,.15.15,0,0,1-.18-.09.14.14,0,0,1,.09-.17l.12,0h.05a7.61,7.61,0,0,1,4.17.59.14.14,0,0,1,.09.2A1.3,1.3,0,0,1,290.8,139.13Z" fill="#010101"/><path d="M259.27,203.63a.14.14,0,0,1-.14-.14h0a.14.14,0,0,1,.14-.15.14.14,0,0,1,.15.15A.14.14,0,0,1,259.27,203.63Z" fill="#010101"/><path d="M242.74,198.91a.24.24,0,0,1-.11-.06.14.14,0,0,1,0-.21.13.13,0,0,1,.2,0,.14.14,0,0,1,0,.21l0,0S242.77,198.91,242.74,198.91Z" fill="#010101"/><path d="M246,247.05h-.32a8.38,8.38,0,0,1-4.34-1.64c-3.76-2.61-6.14-7.34-7.08-14.06-.15-1.18-.26-2.32-.35-3.47a.13.13,0,0,1,.14-.14.13.13,0,0,1,.15.14c.06,1.12.18,2.26.35,3.44.94,6.63,3.26,11.3,6.93,13.85a8.3,8.3,0,0,0,4.2,1.59,5.12,5.12,0,0,0,4-1.53,7.24,7.24,0,0,0,1.47-4.78.14.14,0,0,1,.15-.15.13.13,0,0,1,.14.15,7.6,7.6,0,0,1-1.55,5A5.42,5.42,0,0,1,246,247.05Z" fill="#010101"/><path d="M271.4,202.19a.15.15,0,0,1-.15-.11V202a.13.13,0,0,1,.12-.18.15.15,0,0,1,.18.09V202a.13.13,0,0,1-.12.17S271.43,202.19,271.4,202.19Z" fill="#010101"/><path d="M263.62,253.66a5.56,5.56,0,0,1-3.35-1.06c-2.08-1.55-2.7-4.31-3.2-7,0-.18-.06-.39-.09-.56l-.08-.47c0-.09,0-.15.11-.18a.16.16,0,0,1,.18.12l.09.47c0,.17.06.38.09.56.46,2.64,1.08,5.31,3.08,6.81,2.17,1.64,5.19,1.08,7.19-.21a.15.15,0,1,1,.15.27A8.11,8.11,0,0,1,263.62,253.66Z" fill="#010101"/><path d="M252.9,202.46a.13.13,0,0,1-.14-.15v0a.13.13,0,0,1,.14-.15.14.14,0,0,1,.15.15A.19.19,0,0,1,252.9,202.46Z" fill="#010101"/><path d="M229.74,56.57V235.31a2,2,0,0,1-1.06,2c-.06,0-.12,0-.17.06h-.33a1.79,1.79,0,0,1-1.26-1.91V56.69a2.12,2.12,0,0,1,1.12-2,1.2,1.2,0,0,1,1.29.53,2.14,2.14,0,0,1,.41,1.32" fill="#36242f"/><path d="M266.2,68.67a.43.43,0,0,0,.5-.18l1.59-2.17a.44.44,0,0,1,.79.18l.56,2.64a.42.42,0,0,0,.38.35l2.67.27a.44.44,0,0,1,.26.76l-2,1.79a.44.44,0,0,0-.12.5l1.12,2.47a.43.43,0,0,1-.53.58L268.84,75a.41.41,0,0,0-.49.18l-1.59,2.17a.44.44,0,0,1-.79-.18l-.5-2.4a26,26,0,0,0,3.46-2.65l-.64-1.61c-1.3.23-2.65.44-4,.59a.48.48,0,0,0,0-.33l-1.12-2.46a.49.49,0,0,1,.15-.56.54.54,0,0,1,.38-.06Z" fill="#f0b2cb"/><path d="M265,74.22,262.33,74a.43.43,0,0,1-.24-.76l2-1.79a.29.29,0,0,0,.11-.21c1.38-.17,2.74-.38,4-.58l.64,1.61a23.39,23.39,0,0,1-3.46,2.64l-.06-.23a.45.45,0,0,0-.38-.41" fill="#f0b2cb"/><path d="M262.33,74l2.67.27a.45.45,0,0,1,.38.35l.06.24a32.24,32.24,0,0,1-17.59,4.87h-.2a31,31,0,0,0,6.84-5.78,18.39,18.39,0,0,1-6.81-2.56,65.25,65.25,0,0,0,16.56-.2.51.51,0,0,1-.12.2l-2,1.79a.46.46,0,0,0,.24.82" fill="#f0b2cb"/><g clip-path="url(#clip-path)"><path d="M264.65,74.42l-2.82-.29a.45.45,0,0,1-.27-.79l2.12-1.88a.52.52,0,0,0,.14-.21c1.44-.17,2.85-.38,4.2-.61l.68,1.67a26.07,26.07,0,0,1-3.61,2.76l-.06-.26a.45.45,0,0,0-.38-.39" fill="#ab7991"/></g><path d="M266.7,68.49a.47.47,0,0,1-.5.18l-2.55-.85a.34.34,0,0,0-.38.06l-2.06-3.35a8.67,8.67,0,0,0,.88-.06c3.41-.41,6.43-3,9.4-5.25s6.1-4.76,9.3-3.29a4.85,4.85,0,0,1,1.65,1.23l.7,1c.15.21.32.41.47.62l3.76,4.4,6.46,6.34a.77.77,0,0,1,0,1l-6.52,6.2-5.75,6.4c0-.06-.74.76-.74.76-3.73-1-7.25,1.73-10.42,4.14s-6.22,4.73-9.78,4.43c-4.22-.35-8-3.79-11.56-6.75l-1.24-1,.09-4.84a32.25,32.25,0,0,0,17.59-4.88l.5,2.41a.45.45,0,0,0,.79.18l1.58-2.17a.48.48,0,0,1,.5-.18l2.56.85a.43.43,0,0,0,.53-.59l-1.12-2.46a.4.4,0,0,1,.12-.5l2-1.79a.44.44,0,0,0-.26-.77l-2.67-.26a.44.44,0,0,1-.38-.35l-.56-2.65a.45.45,0,0,0-.79-.17Z" fill="#5c85c4"/><path d="M263.24,67.88a.41.41,0,0,0-.15.56l1.12,2.46a.44.44,0,0,1,0,.32,66.59,66.59,0,0,1-16.55.21A18.2,18.2,0,0,0,254.49,74a30.38,30.38,0,0,1-6.84,5.79h.2l-.09,4.84c-2.93-2.41-6.13-4.67-9.57-4.64s-6.43,2.23-8.22,6.26c0-.65-.06-1.27-.06-1.91s0-1.44,0-2.17c0-3.29,0-6.58,0-9.84s0-6.58,0-9.83c0-1,0-1.91,0-2.88,0-.41,0-.79,0-1.21,2-4.55,5.67-6.69,9.4-6.19,4,.56,7.6,3.88,11,6.72s6.93,5.64,10.83,5.64Z" fill="#5c85c4"/><path d="M263,159l-.23.17c-.12-.08-.27-.17-.39-.26a9.4,9.4,0,0,1-2.34-2,3.3,3.3,0,0,1-.8-1.73s.06,0,.06,0a10.88,10.88,0,0,1,3.29,1.23,2.19,2.19,0,0,1,.91,1.06v0c0,.06,0,.09,0,.15A1.47,1.47,0,0,1,263,159" fill="#ab7991"/><path d="M291.54,138.22a2.89,2.89,0,0,1-.74,1.12,2.8,2.8,0,0,1-4.25-.53,2.75,2.75,0,0,1-.44-1.59,6.12,6.12,0,0,1,1.64-3.81,4.1,4.1,0,0,1,1.18-1.09,1.79,1.79,0,0,1,1.52-.18c.85.36,1.12,1.41,1.24,2.35a7.35,7.35,0,0,1-.15,3.73" fill="#f2c69c"/><path d="M273,243c-.64,3.14-1.61,6.37-3.87,8.6a6.25,6.25,0,0,1-1.35,1.06L257,244.91c-1.55-8.84-3-17.79-3.7-26.77a145.77,145.77,0,0,1-.47-15.48c2.12.5,4.23.88,6.37,1.18a57.28,57.28,0,0,0,6.29.44c.35,0,.7,0,1.05-.06a9.66,9.66,0,0,0,4.82-1.82c2.14,13.45,4.26,27.24,1.55,40.57" fill="#5c85c4"/><path d="M272.66,156.51a9.23,9.23,0,0,1-1.44,1.09c-2.38,1.47-5.55,1.7-7.63-.09,0,0,0,0-.06,0a2.5,2.5,0,0,0-.91-1.06,10.59,10.59,0,0,0-3.29-1.23s-.06,0-.06,0a2.73,2.73,0,0,1,.06-1,7.64,7.64,0,0,0,1.47-2.7,15,15,0,0,0,1.17-5.22,7.91,7.91,0,0,0-1.52-5.05,5.73,5.73,0,0,0-2.59-1.85l-.17-.53a1.71,1.71,0,0,0-1.32-1,5,5,0,0,1,.94-.18,5.28,5.28,0,0,1,4.25,1.71,8.24,8.24,0,0,1,1.82,4.08c.3,1.49.41,3,.83,4.46a6.44,6.44,0,0,0,2.4,3.73,12.13,12.13,0,0,0,3,1.23,5.46,5.46,0,0,1,2.73,1.7,2,2,0,0,1,.29,2" fill="#36242f"/><path d="M254.61,154.22a5.57,5.57,0,0,1-.65-.82,15.87,15.87,0,0,1-2-5.64,3,3,0,0,0,.39-.14,10,10,0,0,0,4.9-3.73,5.91,5.91,0,0,0,.7-4.49,5.79,5.79,0,0,1,2.59,1.84,7.94,7.94,0,0,1,1.52,5,16.76,16.76,0,0,1-1.17,5.23,8.15,8.15,0,0,1-1.47,2.7,3.35,3.35,0,0,1-2.73,1.18,3.52,3.52,0,0,1-2.05-1.18" fill="#f2c69c"/><path d="M262.8,159.15a3.8,3.8,0,0,1-1.35.56,16.15,16.15,0,0,1-8.69-.35,4.64,4.64,0,0,1-1.62-.76c-.09-.06-.15-.15-.23-.21.38-.26.79-.53,1.17-.76a8.08,8.08,0,0,0,1.73-1.38,2.92,2.92,0,0,0,.47-.71c.06-.11.12-.26.18-.38a2.46,2.46,0,0,0,.12-.94,3.37,3.37,0,0,0,2,1.15,3.32,3.32,0,0,0,2.73-1.18,3.8,3.8,0,0,0-.06,1,3.2,3.2,0,0,0,.8,1.73,9.27,9.27,0,0,0,2.35,2,4.27,4.27,0,0,1,.41.26" fill="#d2ac8c"/><path d="M253.37,140.25a4.69,4.69,0,0,1,3.06-2.41,1.77,1.77,0,0,1,1.32,1,3.27,3.27,0,0,1,.17.53,4.68,4.68,0,0,0-2.14-.24,4.29,4.29,0,0,0-2.41,1.09" fill="#36242f"/><path d="M257.22,143.89a9.69,9.69,0,0,1-4.9,3.73c-.12,0-.27.08-.39.14-.5-2.87-.29-5.93,1.44-7.51a4.49,4.49,0,0,1,2.41-1.09,4.77,4.77,0,0,1,2.14.24,5.91,5.91,0,0,1-.7,4.49" fill="#36242f"/><path d="M254.61,154.22a2.76,2.76,0,0,1-.12.94h-.62a10,10,0,0,1-1.29-1.23,9.76,9.76,0,0,1-2.11-6.17,1.57,1.57,0,0,0,.64.18,2.4,2.4,0,0,0,.79-.15,16.1,16.1,0,0,0,2,5.64,8,8,0,0,0,.68.79" fill="#36242f"/><path d="M249.91,146.32a14.92,14.92,0,0,1,.73-4.25,6.72,6.72,0,0,1,2.53-3.44,4.75,4.75,0,0,1,3.23-.82,4.78,4.78,0,0,0-3.06,2.41c-1.76,1.61-1.93,4.67-1.44,7.51a2.4,2.4,0,0,1-.79.15,1.21,1.21,0,0,1-.64-.18.91.91,0,0,1-.42-.35,2.06,2.06,0,0,1-.14-1" fill="#36242f"/><path d="M250,223.74a9.76,9.76,0,0,0,.23,3.91,63.51,63.51,0,0,1,1.12,12.45,5.47,5.47,0,0,1,0,.7L234,228.26c-.68-10.39,2.11-21.16,8.72-29.12a10.43,10.43,0,0,0,3,1.44c2.35.82,4.76,1.53,7.16,2.11a145.51,145.51,0,0,0,.47,15.47c-.44.68-.91,1.36-1.38,2a10.23,10.23,0,0,0-1.93,3.55" fill="#5c85c4"/><g clip-path="url(#clip-path-2)"><path d="M253.25,219.6a23.12,23.12,0,0,1-1.17-4.43,30.11,30.11,0,0,1-.38-4.58,33.48,33.48,0,0,1,1.09-9.07l.55.09a76.13,76.13,0,0,0-.26,8.92c.06,1.47.17,3,.29,4.43s.3,3,.38,4.47Z" fill="#295eac"/></g><path d="M228.21,144.71a13.7,13.7,0,0,0-.23-1.79,6.15,6.15,0,0,0-.18-.71c.76-2.73,3.17-2.58,4.32-.23a3,3,0,0,1-.06,2.91,2.4,2.4,0,0,1-3.17.52,3,3,0,0,1-.68-.7" fill="#a46847"/><path d="M254.49,155.13a1.88,1.88,0,0,1-.18.38,2.92,2.92,0,0,1-.47.71,8.53,8.53,0,0,1-1.73,1.38c-.38.26-.79.53-1.17.76a1.78,1.78,0,0,1-.56-1.35,1.88,1.88,0,0,1,.38-1,2.7,2.7,0,0,1,.7-.56,7.9,7.9,0,0,1,2.44-.38,4.52,4.52,0,0,0,.59,0" fill="#ab7991"/><path d="M297.26,152.93a26.6,26.6,0,0,1-8.92,18.58,22.57,22.57,0,0,1-16.5,5.29,1.45,1.45,0,0,0-1.38,2.23,41.86,41.86,0,0,1,3.49,6.31,18.37,18.37,0,0,1,1.5,10.39,13.52,13.52,0,0,1-1.09,3.29,9.61,9.61,0,0,1-2.9,3.41,10,10,0,0,1-4.82,1.82c-.35,0-.7.06-1.05.06a57.28,57.28,0,0,1-6.29-.44,60.92,60.92,0,0,1-6.37-1.18,73.51,73.51,0,0,1-7.16-2.11,10.49,10.49,0,0,1-3-1.44,4,4,0,0,1-1.17-1.29,7.45,7.45,0,0,1-.68-3.94,82,82,0,0,1,2.38-18.11l-.06,0c-2.4,3.44-5.08,5.43-8.66,7.6a15.66,15.66,0,0,1-4.78,2v-4.11a2.21,2.21,0,0,0,.91-1,2.44,2.44,0,0,0-.71-2.32l-.17-.17v-9.51c6.92-4.26,15.32-6.2,21-12.13a1.46,1.46,0,0,0-.38,1,1.86,1.86,0,0,0,.55,1.35,1.71,1.71,0,0,0,.24.21,5,5,0,0,0,1.61.76,16,16,0,0,0,8.69.35,3.58,3.58,0,0,0,1.35-.56l.24-.17a1.53,1.53,0,0,0,.53-1.35v-.12c2.11,1.79,5.28,1.55,7.63.09a11.56,11.56,0,0,0,1.44-1.09,17,17,0,0,0,3.73-5.4,63,63,0,0,1,3.73-7.55,10.13,10.13,0,0,1,6.46-4.75,2.78,2.78,0,0,0,4.25.53,10,10,0,0,1,4.44,3.81,17.26,17.26,0,0,1,1.9,9.75" fill="#f0b2cb"/><path d="M263.59,157.51v.06a.1.1,0,0,0,0-.06v0a0,0,0,0,0,0,0" fill="#f0b2cb"/><path d="M227.77,142.3s0-.06,0-.09l.18.71a13.7,13.7,0,0,1,.23,1.79,3.07,3.07,0,0,1-.44-2.41" fill="#a46847"/><path d="M230.65,180.2a2.06,2.06,0,0,1-.91,1,5.44,5.44,0,0,1-.91.44,5.19,5.19,0,0,1-1.91.41,1.91,1.91,0,0,1-1.2-.38,3,3,0,0,1-1-2.52c0-1.5-.27-3,1.47-3.06a2,2,0,0,1,.73.06,5.56,5.56,0,0,1,2.82,1.53l.17.17a2.41,2.41,0,0,1,.74,2.32" fill="#f2c69c"/><path d="M221.9,176.68a13.72,13.72,0,0,1,4.7-6.28l.35-.27v6.05a3,3,0,0,0-.73-.06c-1.71.12-1.41,1.56-1.47,3.06a2.94,2.94,0,0,0,1,2.52,2.11,2.11,0,0,0,1.2.38v3.35a6.24,6.24,0,0,1-3.32-1.44,7,7,0,0,1-1.73-7.31" fill="#f0b2cb"/><path d="M204.58,194.85c3.23-1.49,6.1-1.79,8-3.81,3.09,13.88,1.06,28.65-1.76,42.63a17,17,0,0,1-1.67,5.25,5.87,5.87,0,0,1-4.38,3.05,5.67,5.67,0,0,1-4.81-2.52,15,15,0,0,1-2.17-5.2c-.24-.88-.44-1.73-.65-2.61,2.41-11.48,3.2-23.69,3.93-35.52a28,28,0,0,0,3.47-1.27" fill="#f0b2cb"/><g clip-path="url(#clip-path-3)"><path d="M201.44,193.53a45.59,45.59,0,0,1,.7,10.75A68.81,68.81,0,0,1,200.73,215c-.67,3.47-1.11,7-1.7,10.52a57.94,57.94,0,0,1-2.47,10.45l-.53-.18a81.72,81.72,0,0,0,1.77-10.45c.41-3.52.76-7.08,1.41-10.63s1.14-7,1.46-10.48a77.72,77.72,0,0,0,.21-10.57Z" fill="#ab7991"/></g><path d="M210.45,165.82c-2.88-6-7.52-10.34-12.42-14.86a2.85,2.85,0,0,0-.35-.67c8.66-.74,16.15-5.46,23.69-9.81,1.38-.79,3-1.55,4.46-.94a3.94,3.94,0,0,1,1.94,2.64s0,.06,0,.09a3,3,0,0,0,.41,2.41c.3,4.79-2,9.6-5.28,13.18s-7.72,6.26-12.1,8.66c-.09-.2-.2-.47-.32-.7" fill="#5c85c4"/><g clip-path="url(#clip-path-4)"><path d="M197.27,150.17A24.29,24.29,0,0,1,202.9,154a32.63,32.63,0,0,1,8,11,28.67,28.67,0,0,1,2,6.46l-.53.14a52.22,52.22,0,0,0-2.79-6,45.92,45.92,0,0,0-3.55-5.49,54,54,0,0,0-4.26-4.93c-1.53-1.58-3.14-3-4.82-4.49Z" fill="#295eac"/></g><path d="M196.18,154.05a9.64,9.64,0,0,1-1.76-4.64,3.43,3.43,0,0,1,3.17.79.41.41,0,0,1,.09.12,2.05,2.05,0,0,1,.35.67,2.24,2.24,0,0,1-.23,1.94,3.42,3.42,0,0,1-1.62,1.12" fill="#295eac"/><path d="M195,138.37l-1.18,3c-.09-.12-.2-.2-.29-.32a1.77,1.77,0,0,1-.24-1.94,2.34,2.34,0,0,1,1.71-.76" fill="#b7724b"/><path d="M194.36,142a1.27,1.27,0,0,1,.18,1.2,1.16,1.16,0,0,1-.71.53,3.08,3.08,0,0,1-.91.06l.94-2.41a3.47,3.47,0,0,1,.5.62" fill="#b7724b"/><path d="M193.33,139.13a1.71,1.71,0,0,0,.24,1.94,1.47,1.47,0,0,0,.29.32l-.94,2.41a2.33,2.33,0,0,0,.91-.06,1.09,1.09,0,0,0,.71-.53,1.2,1.2,0,0,0-.18-1.2,3.59,3.59,0,0,0-.53-.65l1.18-3a2.47,2.47,0,0,0-1.68.79m-4.05,8.93a9.5,9.5,0,0,1-1.2-1.47c-.5-.68-1-1.38-1.41-2.09a.49.49,0,0,0,.09-.35,19.09,19.09,0,0,0-.27-2.91,5.71,5.71,0,0,1,.62-3.28,6.8,6.8,0,0,1,3.55-2.38,9.38,9.38,0,0,0,3.29-1.79h0c2.7,3.05,2.82,9.69,1.85,12.74a5.27,5.27,0,0,1-1.41,2.35,2.94,2.94,0,0,1-.79.5,3.58,3.58,0,0,1-3.2-.41,9.07,9.07,0,0,1-1.12-.91" fill="#b7724b"/><path d="M194.42,149.41a10,10,0,0,0,1.76,4.64c-.26.08-.5.17-.76.23a19.33,19.33,0,0,1-6.34.62,4.4,4.4,0,0,1-1.24-.24,5.53,5.53,0,0,0,1.5-2.08,5.83,5.83,0,0,0,.38-2.56,6.25,6.25,0,0,0-.47-2,7.43,7.43,0,0,0,1.12.91,3.68,3.68,0,0,0,3.2.41,2.94,2.94,0,0,0,.79-.5,3.07,3.07,0,0,1,.06.53" fill="#a46847"/><path d="M186.93,151.46a3.25,3.25,0,0,1,.33-.29,14.94,14.94,0,0,1,2.49-1.18,5.77,5.77,0,0,1-.38,2.56,5.53,5.53,0,0,1-1.5,2.08,2.19,2.19,0,0,1-.73-.41,2.16,2.16,0,0,1-.38-2.49.81.81,0,0,1,.17-.27" fill="#295eac"/><path d="M185.29,141.51a8.48,8.48,0,0,1,.06-5.73,5.74,5.74,0,0,1,4.28-3.55,4.55,4.55,0,0,1,4.29,1.56,8.92,8.92,0,0,1-3.29,1.79,6.8,6.8,0,0,0-3.55,2.38,5.51,5.51,0,0,0-.62,3.28,19.09,19.09,0,0,1,.27,2.91,1.38,1.38,0,0,1-.09.35,13.43,13.43,0,0,1-1.35-3" fill="#36242f"/><path d="M185.35,135.78a8.48,8.48,0,0,0-.06,5.73,13.53,13.53,0,0,0,1.38,3c-.09.12-.27,0-.56-.17a4.25,4.25,0,0,1-.76-.82,8.68,8.68,0,0,1-1.18-7.7,7,7,0,0,1,6.05-4.64,13.23,13.23,0,0,1,3.47.5,1.3,1.3,0,0,1,.88.5,1.19,1.19,0,0,1-.24,1.18,2.93,2.93,0,0,1-.38.41,4.55,4.55,0,0,0-4.29-1.56,5.77,5.77,0,0,0-4.31,3.58" fill="#36242f"/><path d="M183.53,197.09a7.12,7.12,0,0,0,1.2.46c2.06.68,5.64.56,9.25.06h0a52.73,52.73,0,0,0,7.16-1.49c-.7,11.86-1.52,24-3.93,35.52a91.7,91.7,0,0,1-4.29,14.8,18.28,18.28,0,0,1-3.29,5.9c-1.46,1.55-3.52,2.38-5.31,1.58-2.55-1.17-3.61-5-4.08-8.39-2.26-16.09.53-32.53,3.29-48.44" fill="#f0b2cb"/><path d="M180.45,188.86a3.93,3.93,0,0,0,0,1,2.36,2.36,0,0,0,4,1.62,3.39,3.39,0,0,0,1.38-2.14,2.8,2.8,0,0,0-1.85-2.79,2.51,2.51,0,0,0-2.53.29,2.89,2.89,0,0,0-1,2.05m6.28-37.1a2.16,2.16,0,0,0,.38,2.49,1.83,1.83,0,0,0,.73.41,4.4,4.4,0,0,0,1.24.24,17.84,17.84,0,0,0,6.34-.62c.26-.06.5-.15.76-.23a3.27,3.27,0,0,0,1.62-1.15A2.24,2.24,0,0,0,198,151c4.87,4.49,9.51,8.87,12.42,14.86.12.23.23.5.35.76,2.79,6.11,5.76,16.21,3.35,22.11a7.47,7.47,0,0,1-1.5,2.38c-1.94,2-4.78,2.29-8,3.81a24,24,0,0,1-3.47,1.24,53.38,53.38,0,0,1-7.16,1.49h0c-3.64.5-7.19.62-9.25-.06a11.13,11.13,0,0,1-1.2-.46c-3.23-1.56-4.11-4.73-5.11-8.17a.55.55,0,0,0-.44-.38,14.35,14.35,0,0,1-2.09-.23c-6-1.59-11.83-5.55-13.56-11.86a15.74,15.74,0,0,1,2.11-12.66,17.7,17.7,0,0,1,9.11-6.78c4-1.35,9.57-4.55,13.68-5.78a1.3,1.3,0,0,0-.33.29.64.64,0,0,0-.17.24" fill="#5c85c4"/><path d="M180.62,189.07h0l-2.46-.06a.14.14,0,0,1-.15-.15.14.14,0,0,1,.15-.14l2.46.06a.14.14,0,0,1,.15.14A.14.14,0,0,1,180.62,189.07Z" fill="#295eac"/><path d="M184.53,187a6.72,6.72,0,0,0,3-6.49,6.44,6.44,0,0,0-1.44-3.26,12.21,12.21,0,0,0-2.93-2.35c-1.12-.68-2.32-1.32-3.5-2.09a10.53,10.53,0,0,1-3.08-3.05,5.51,5.51,0,0,1-.73-4.4,4.18,4.18,0,0,1,1.17-1.94,3.47,3.47,0,0,1,2-1,.26.26,0,0,1,.29.27.27.27,0,0,1-.2.29h0a3.32,3.32,0,0,0-2.18,2.61,4.46,4.46,0,0,0,.88,3.32,9.65,9.65,0,0,0,2.76,2.5c1.09.7,2.29,1.29,3.47,2a12.28,12.28,0,0,1,3.29,2.76,7.6,7.6,0,0,1,1.61,4.11,7.22,7.22,0,0,1-1,4.26,7.12,7.12,0,0,1-3.11,2.87.29.29,0,0,1-.38-.14c-.06-.15,0-.3.09-.35" fill="#295eac"/><path d="M176.75,168.46c-.06,0-.15-.06-.15-.12a3,3,0,0,1,.65-2.26,2.86,2.86,0,0,1,2.08-1.05.13.13,0,0,1,.15.14.14.14,0,0,1-.15.15,2.68,2.68,0,0,0-1.88,1,2.71,2.71,0,0,0-.59,2c.06.06,0,.15-.11.15Z" fill="#295eac"/><path d="M185.85,188.92a3.4,3.4,0,0,1-1.38,2.18,2.76,2.76,0,0,1-2.32.55,2.61,2.61,0,0,1-1.68-2.17,3.93,3.93,0,0,1,0-1,3,3,0,0,1,1-2,2.54,2.54,0,0,1,2.53-.3,2.72,2.72,0,0,1,1.85,2.76" fill="#a46847"/><polygon points="267.73 384.28 267.61 384.77 216.73 445.64 216.44 446.13 197.83 522.29 21.47 522.29 40.84 501.04 48.57 482.36 55.02 462.4 76.28 434.07 89.78 372.92 98.8 369.69 97.51 358.09 108.84 336.48 116.59 330.79 148.94 284.19 162.54 270.54 164.53 261.64 228.86 224.18 228.92 224.21 226.95 231.58 203.32 319.86 203.32 320.3 267.73 384.28" fill="#a8abab"/><polygon points="267.61 384.77 267.73 384.28 203.32 320.3 203.32 319.86 226.95 231.58 228.92 224.21 229.74 224.83 234.03 227.88 251.32 240.42 257.04 244.56 267.73 252.28 306.28 280.17 309.33 291.12 315.58 309.65 326.74 361.32 333.17 367.75 352.81 399.25 357.98 395.4 357.86 395.55 357.86 395.58 390.48 459.82 403.98 477.2 416.87 503.59 427.82 522.29 197.83 522.29 216.44 446.13 216.73 445.64 267.61 384.77" fill="#bdd2ed"/><path d="M427,368.66H411.26a7.34,7.34,0,0,0,.62-2.91c0-4.7-4.55-8.54-10.13-8.54H345.47c-5.58,0-10.13,3.84-10.13,8.54a7.27,7.27,0,0,0,.74,3.17H306.83c-4.55,0-8.39,2.56-9.68,6H260.48c-3.7,0-6.73,2.55-6.73,5.67s3,5.66,6.73,5.66h70.28a8.19,8.19,0,0,0,2.06-.26h30.3a11.73,11.73,0,0,0,4.22-.79,11.76,11.76,0,0,0,3.41.5H427c5.58,0,10.13-3.85,10.13-8.55s-4.61-8.51-10.19-8.51" fill="#ececeb"/><path d="M43.78,329.43h12a7.63,7.63,0,0,1-.47-2.64A7.78,7.78,0,0,1,63.1,319h43.1a7.74,7.74,0,0,1,7.19,10.63h22.4a7.84,7.84,0,0,1,7.43,5.49h28.07a5.14,5.14,0,0,1,0,10.27H117.44a5.44,5.44,0,0,1-1.58-.23H92.66a7.9,7.9,0,0,1-3.23-.7,7.64,7.64,0,0,1-2.58.44H43.78a7.76,7.76,0,0,1,0-15.51" fill="#ececeb"/><polygon points="427.47 516.27 426.35 516.27 426.35 511.99 426.68 511.99 427.24 512.02 427.47 512.02 429.14 512.05 429.14 516.3 427.47 516.27" fill="#dedfde"/><path d="M426.35,485.48a1,1,0,0,1,1.06.5l6.43,14.26,6.84,15.18c.24.5-.26,1-.94,1l-10.63-.15V512l-1.67,0h-1.12V485.48Z" fill="#dedfde"/><path d="M426.35,512v4.28l1.15,0,1.64,0v9a2.35,2.35,0,1,1-4.69,0v-9l1.49,0h.36l.05-4.28Z" fill="#36242f"/><polygon points="424.45 516.24 424.45 511.96 426.32 511.99 426.32 516.27 425.97 516.27 424.45 516.24" fill="#8e9192"/><path d="M424.45,512v4.28h0l-8.72-.11a2.13,2.13,0,0,0,.23-1.71l-1.61-5.78,4.31-8.6L425.68,486a1,1,0,0,1,.62-.47V512Z" fill="#8e9192"/><path d="M416,514.42a2.13,2.13,0,0,1-.23,1.71l-3.7-.06c-.71,0-1.15-.53-.91-1l3.2-6.4Z" fill="#dedfde"/><path d="M395,444.05a1.44,1.44,0,0,1,1.56,1.18l9.39,33.49,8.4,29.92-3.2,6.4c-.24.5.2,1,.91,1l3.7.06a1.38,1.38,0,0,1-1.15.67l-17.5-.35v-2.79l-1.67,0H395Z" fill="#dedfde"/><polygon points="394.97 516.39 394.97 513.6 395.18 513.6 395.41 513.6 397.08 513.63 397.08 516.42 396.64 516.42 394.97 516.39" fill="#dedfde"/><polygon points="394.97 513.6 394.97 516.39 394.44 516.36 392.39 516.33 392.39 513.54 394.65 513.6 394.97 513.6" fill="#8e9192"/><path d="M395,444.11V513.6h-.32l-2.23,0v2.76h-.21L374.1,516a1.8,1.8,0,0,1-1.33-2.44l11-35.26,10.31-33.08a1.55,1.55,0,0,1,.91-1.06" fill="#8e9192"/><path d="M395,516.39V513.6h0v2.79l1.67,0h.44v10.45a2.35,2.35,0,1,1-4.69,0V516.33l2,.06Z" fill="#36242f"/><path d="M309.3,466.48a1.47,1.47,0,0,1,1.56.79l9.39,23.2,10,24.72c.33.82-.38,1.64-1.38,1.64l-17.47-.26v-3.73l-1.67,0h-.47V466.48Z" fill="#dedfde"/><polygon points="310.97 516.6 309.3 516.57 309.3 512.84 309.54 512.84 309.77 512.84 311.44 512.87 311.44 516.6 310.97 516.6" fill="#dedfde"/><polygon points="309.3 512.84 309.3 516.57 308.74 516.57 306.78 516.54 306.78 512.78 309.01 512.81 309.3 512.84" fill="#8e9192"/><path d="M306.51,516.51l-18.11-.27c-1,0-1.68-.88-1.32-1.67l11-24.43,10.3-22.9a1.36,1.36,0,0,1,.91-.73v46.3H309l-2.23,0v3.73Z" fill="#8e9192"/><path d="M309.3,516.57v-3.73h0v3.73l1.67,0h.47v9.51a2.35,2.35,0,1,1-4.69,0v-9.57l2,0Z" fill="#36242f"/><polygon points="199.94 519.09 198.59 519.06 198.59 514.48 199.03 514.48 199.26 514.48 200.94 514.51 200.94 519.09 199.94 519.09" fill="#dedfde"/><path d="M198.59,514.48v-34a1.15,1.15,0,0,1,1.23.62L207.34,499l8,19c.27.61-.32,1.26-1.11,1.26l-13.33-.18v-4.58l-1.68,0h-.64Z" fill="#dedfde"/><polygon points="198.59 514.48 198.59 519.06 198.15 519.06 196.39 519.03 196.27 519.03 196.27 514.45 198.5 514.48 198.59 514.48" fill="#8e9192"/><path d="M198.59,519.06v-4.58h0v4.58l1.35,0,1,0v8.66a2.35,2.35,0,0,1-4.7,0v-8.72h.12l1.79,0Z" fill="#36242f"/><path d="M196.27,514.45V519l-14.39-.2c-.79,0-1.35-.68-1-1.29l1.23-2.65,6.14.12a1.43,1.43,0,0,0,1.38-1.91l-2.85-8.22,2.88-6.13,8.24-17.65a1.06,1.06,0,0,1,.74-.56v33.94h-.09Z" fill="#8e9192"/><path d="M189.61,513.1a1.44,1.44,0,0,1-1.38,1.91l-6.14-.12,4.7-10Z" fill="#dedfde"/><polygon points="168.61 514.69 168.61 513.07 169.03 513.07 169.26 513.07 170.93 513.1 170.93 514.72 170.29 514.72 168.61 514.69" fill="#dedfde"/><path d="M170.17,457.06l9.39,27.12,7.17,20.7-4.7,10-11.13-.17V513.1l-1.67,0h-.68v-57a1.43,1.43,0,0,1,1.62.94" fill="#dedfde"/><polygon points="168.58 513.07 168.58 514.69 168.06 514.69 166.26 514.63 166.26 513.01 168.5 513.07 168.58 513.07" fill="#8e9192"/><path d="M168.58,456.15v56.92h-.08l-2.24,0v1.62h-.44l-18.11-.3a1.45,1.45,0,0,1-1.32-2l11-28.57,10.3-26.8a1.41,1.41,0,0,1,.91-.88" fill="#8e9192"/><path d="M168.58,514.69v-1.62h0v1.62l1.68,0h.67v11.62a2.35,2.35,0,1,1-4.69,0V514.66l1.79,0Z" fill="#36242f"/><path d="M70.5,509.9V402.57c.61-.15,1.32.41,1.55,1.76l9.4,50.52,10,53.85c.32,1.76-.38,3.61-1.38,3.58l-17.38-.56v-1.79l-1.67,0H70.5Z" fill="#dedfde"/><polygon points="72.17 511.72 70.5 511.66 70.5 509.9 70.82 509.9 71.06 509.9 72.73 509.93 72.73 511.75 72.17 511.72" fill="#dedfde"/><polygon points="68.06 511.58 68.06 509.87 70.29 509.9 70.5 509.9 70.5 511.66 69.97 511.63 68.06 511.58" fill="#8e9192"/><path d="M68.06,509.87v1.74h-.32l-18.12-.56c-1,0-1.67-1.91-1.32-3.67l11-53.2,10.31-49.91a2.36,2.36,0,0,1,.91-1.61V509.9h-.21Z" fill="#8e9192"/><path d="M72.73,523.17a2.35,2.35,0,0,1-4.7,0V511.58l1.91.05.53,0V509.9h0v1.76l1.67.06.56,0v11.42Z" fill="#36242f"/><polygon points="23.99 514.04 22.32 514.01 22.32 511.99 22.99 511.99 23.52 512.02 23.76 512.02 25.43 512.05 25.43 514.07 23.99 514.04" fill="#dedfde"/><path d="M22.7,455.41a.71.71,0,0,1,.24.06v54.9H22.7Z" fill="#dedfde"/><path d="M22.7,455.41v54.93h.24v-54.9a1.4,1.4,0,0,1,1,.91l9.4,27.13,10,28.92a1.44,1.44,0,0,1-1.38,1.91l-16.5-.3v-2l-1.67,0H22.35V455.38a1.16,1.16,0,0,0,.35,0" fill="#dedfde"/><path d="M23.08,527.61a2.36,2.36,0,0,1-2.35-2.35V514l1,0h.53v-2h0v2L24,514l1.44,0v11.22a2.32,2.32,0,0,1-2.32,2.35" fill="#36242f"/><polygon points="20.73 513.98 20.73 511.96 22.32 511.99 22.32 514.01 21.79 513.98 20.73 513.98" fill="#8e9192"/><path d="M20.73,512v2l-1.2,0-18.11-.29a1.46,1.46,0,0,1-1.33-2l11-28.56,10.31-26.81a1.39,1.39,0,0,1,.91-.85V512Z" fill="#8e9192"/><path d="M249.09,158.89q-.75,2.12-1.41,4.23c-.44,1.41-.88,2.82-1.3,4.22l-1.29,4.23c-.44,1.41-.91,2.82-1.44,4.23a43,43,0,0,1,.77-4.4c.32-1.47.7-2.88,1.11-4.32a41.1,41.1,0,0,1,1.5-4.2,25.1,25.1,0,0,1,2.06-4" fill="#ab7991"/><path d="M256.48,145.74a.74.74,0,0,1,.5.7,2.35,2.35,0,0,1-.14.82l-.24.74a2.55,2.55,0,0,0-.17.7,1.3,1.3,0,0,0,.35,1.15.78.78,0,0,0,.5.2.69.69,0,0,0,.55-.23h0a.1.1,0,0,1,.15,0,.11.11,0,0,1,0,.09.83.83,0,0,1-.65.58,1,1,0,0,1-.91-.2,1.75,1.75,0,0,1-.55-1.65,6.45,6.45,0,0,1,.55-1.49,2.06,2.06,0,0,0,.24-.68.52.52,0,0,0-.24-.53h0a.08.08,0,0,1,0-.12s0-.08.05-.08" fill="#d2ac8c"/><path d="M194,138.25a1.32,1.32,0,0,0-1.44,1.26,1.26,1.26,0,0,0,.3,1,3.18,3.18,0,0,0,.85.71,3.11,3.11,0,0,1,.94.91,1.56,1.56,0,0,1,.05,1.35,1.74,1.74,0,0,1-.91.94,2.36,2.36,0,0,1-1.26.08c-.06,0-.09-.05-.06-.11s.06-.09.12-.09a1.64,1.64,0,0,0,1.79-1,1.17,1.17,0,0,0-.09-1,2.33,2.33,0,0,0-.79-.73,3.89,3.89,0,0,1-1-.82,2.12,2.12,0,0,1-.35-1.3,1.63,1.63,0,0,1,.68-1.14,1.6,1.6,0,0,1,1.26-.27c.06,0,.09.06.06.12a.46.46,0,0,1-.18.09" fill="#a46847"/><path d="M180.39,273.09h-9.52a9.21,9.21,0,0,0-8.69-6.28H136.85A9.16,9.16,0,0,0,130,282H126a7.1,7.1,0,0,0-7.07,7.08v.44a7.1,7.1,0,0,0,7.07,7.07h29.57a7.08,7.08,0,0,0,6.55-4.43h18.26a8.1,8.1,0,0,0,8.07-8.07v-2.91a8.11,8.11,0,0,0-8.07-8.08" fill="#fff"/></g></g></svg>